<?xml version="1.0" encoding="UTF-8"?>
<svg width="inherit" height="inherit" viewBox="0 0 20 22" version="1.1" xmlns="http://www.w3.org/2000/svg" xmlns:xlink="http://www.w3.org/1999/xlink">
    <!-- Generator: Sketch 61.2 (89653) - https://sketch.com -->
    <title>notifications</title>
    <desc>Created with Sketch.</desc>
    <g id="final-1.3" stroke="none" stroke-width="1" fill="inherit" fill-rule="evenodd">
        <g id="all-icons" transform="translate(-591.000000, -257.000000)" fill="inherit" fill-rule="nonzero">
            <path d="M603.231772,276.135 C603.709498,276.412121 603.872121,277.024046 603.595,277.501772 C603.058303,278.426978 602.069603,278.996456 601,278.996456 C599.930397,278.996456 598.941697,278.426978 598.405,277.501772 C598.127879,277.024046 598.290502,276.412121 598.768228,276.135 C599.211831,275.877673 599.771146,275.999514 600.070663,276.400727 L600.200044,276.596539 C600.387469,276.84647 600.683081,276.996456 601,276.996456 C601.316919,276.996456 601.612531,276.84647 601.799956,276.596539 L601.865,276.498228 C602.142121,276.020502 602.754046,275.857879 603.231772,276.135 Z M601,257 C604.865993,257 608,260.134007 608,264 C608,266.899754 608.522965,269.078775 609.377896,270.646148 C609.664152,271.170951 609.964466,271.581381 610.257203,271.89038 C610.388966,272.029463 610.484877,272.11427 610.532223,272.151365 L610.5547,272.16795 C611.345008,272.694822 611.018551,273.898517 610.115806,273.99397 L610,274 L592,274 C591.050168,274 590.654106,272.817379 591.352289,272.237205 L591.4453,272.16795 C591.478192,272.146022 591.584682,272.05728 591.742797,271.89038 C592.035534,271.581381 592.335848,271.170951 592.622104,270.646148 C593.434288,269.157144 593.946874,267.116127 593.996102,264.429571 L594,264 C594,260.134007 597.134007,257 601,257 Z M601,259 C598.311245,259 596.118182,261.122307 596.00462,263.78311 L596,264 C596,267.225246 595.397965,269.733725 594.377896,271.603852 L594.239679,271.849381 L594.148,272 L607.851,272 L607.760321,271.849381 L607.622104,271.603852 C606.65061,269.822778 606.058285,267.462701 606.004076,264.455882 L606,264 L605.99538,263.78311 C605.881818,261.122307 603.688755,259 601,259 Z" id="Combined-Shape"></path>
        </g>
    </g>
</svg>