<?xml version="1.0" encoding="UTF-8"?>
<svg width="inherit" height="inherit" viewBox="0 0 22 22" version="1.1" xmlns="http://www.w3.org/2000/svg" xmlns:xlink="http://www.w3.org/1999/xlink">
    <!-- Generator: Sketch 61.2 (89653) - https://sketch.com -->
    <title>search</title>
    <desc>Created with Sketch.</desc>
    <g id="final-1.3" stroke="inherit" stroke-width="1" fill="inherit" fill-rule="evenodd">
        <g id="all-icons" transform="translate(-506.000000, -254.000000)" fill="inherit" fill-rule="nonzero">
            <g id="search-(1)" transform="translate(507.000000, 255.000000)">
                <path d="M8.88888889,-0.875 C3.49644196,-0.875 -0.875,3.49644196 -0.875,8.88888889 C-0.875,14.2813358 3.49644196,18.6527778 8.88888889,18.6527778 C14.2813358,18.6527778 18.6527778,14.2813358 18.6527778,8.88888889 C18.6527778,3.49644196 14.2813358,-0.875 8.88888889,-0.875 Z M8.88888889,0.875 C13.3148375,0.875 16.9027778,4.46294027 16.9027778,8.88888889 C16.9027778,13.3148375 13.3148375,16.9027778 8.88888889,16.9027778 C4.46294027,16.9027778 0.875,13.3148375 0.875,8.88888889 C0.875,4.46294027 4.46294027,0.875 8.88888889,0.875 Z" id="Oval"></path>
                <path d="M14.5479482,14.5479482 C14.8611813,14.2347152 15.3528142,14.2086125 15.6957805,14.46964 L15.7853851,14.5479482 L20.6187184,19.3812816 C20.9604272,19.7229903 20.9604272,20.2770097 20.6187184,20.6187184 C20.3054854,20.9319515 19.8138525,20.9580542 19.4708862,20.6970267 L19.3812816,20.6187184 L14.5479482,15.7853851 C14.2062395,15.4436763 14.2062395,14.889657 14.5479482,14.5479482 Z" id="Path"></path>
            </g>
        </g>
    </g>
</svg>